{"title":"Mutants.2009.FRENCH.DVDRiP.XViD.DTS-VanCo","uid":5205848,"size":1519939584,"categoryP":"video","categoryS":"movies","magnet":"?xt=urn:btih:a8f49fcae28f9aa098620e84e00f270c7cf86753&amp;dn=Mutants.2009.FRENCH.DVDRiP.XViD.DTS-VanCo&amp;tr=udp%3A%2F%2Ftracker.openbittorrent.com%3A80&amp;tr=udp%3A%2F%2Fopen.demonii.com%3A1337&amp;tr=udp%3A%2F%2Ftracker.coppersurfer.tk%3A6969&amp;tr=udp%3A%2F%2Fexodus.desync.com%3A6969","seeders":1,"leechers":0,"uploader":"raymondhome","files":1,"time":1260373425,"description":"Love for All and Sharing is the first step to solving all the problems of humanity.\n\nWebsites I want to share.\n\n    &lt;a href=&quot;\nhttp://www.shareintl.org/&quot; rel=&quot;nofollow&quot; target=&quot;_NEW&quot;&gt;\nhttp://www.shareintl.org/&lt;/a&gt;\n\n    &lt;a href=&quot;\nhttp://www.lightmiddleway.com&quot; rel=&quot;nofollow&quot; target=&quot;_NEW&quot;&gt;\nhttp://www.lightmiddleway.com&lt;/a&gt;\n\n\nThank you very much\n\nNo credit for me...credit to PVP &amp; EVERYONE for sharing\n &lt;a href=&quot;\nhttp://thepiratebay.se/user/raymondhome/&quot; rel=&quot;nofollow&quot; target=&quot;_NEW&quot;&gt;\nhttp://thepiratebay.se/user/raymondhome/&lt;/a&gt;\n\nVideo\nID                               : 0\nFormat                           : MPEG-4 Visual\nFormat profile                   : AdvancedSimple@L5\nFormat settings, BVOP            : Yes\nFormat settings, QPel            : No\nFormat settings, GMC             : No warppoints\nFormat settings, Matrix          : Default (H.263)\nMuxing mode                      : Packed bitstream\nCodec ID                         : XVID\nCodec ID/Hint                    : XviD\nDuration                         : 1h 25mn\nBit rate                         : 1 603 Kbps\nWidth                            : 704 pixels\nHeight                           : 368 pixels\nDisplay aspect ratio             : 1.913\nFrame rate                       : 25.000 fps\nResolution                       : 24 bits\nColorimetry                      : 4:2:0\nScan type                        : Progressive\nBits/(Pixel*Frame)               : 0.248\nStream size                      : 982 MiB (68%)\nWriting library                  : XviD 1.1.2 (UTC 2006-11-01)\nAudio\nID                               : 1\nFormat                           : DTS\nFormat/Info                      : Digital Theater Systems\nCodec ID                         : 2001\nCodec ID/Info                    : Digital Theater Systems\nDuration                         : 1h 25mn\nBit rate mode                    : Constant\nBit rate                         : 755 Kbps\nChannel(s)                       : 6 channels\nChannel positions                : Front: L C R, Surround: L R, LFE\nSampling rate                    : 48.0 KHz\nResolution                       : 16 bits\nStream size                      : 462 MiB (32%)\nAlignment                        : Split accross interleaves\nInterleave, duration             : 40 ms (1.00 video frame)\nInterleave, preload duration     : 500 ms","torrent":{"xt":"urn:btih:a8f49fcae28f9aa098620e84e00f270c7cf86753","amp;dn":"Mutants.2009.FRENCH.DVDRiP.XViD.DTS-VanCo","amp;tr":["udp%3A%2F%2Ftracker.openbittorrent.com%3A80","udp%3A%2F%2Fopen.demonii.com%3A1337","udp%3A%2F%2Ftracker.coppersurfer.tk%3A6969","udp%3A%2F%2Fexodus.desync.com%3A6969"],"infoHash":"a8f49fcae28f9aa098620e84e00f270c7cf86753","infoHashBuffer":{"type":"Buffer","data":[168,244,159,202,226,143,154,160,152,98,14,132,224,15,39,12,124,248,103,83]},"announce":[],"urlList":[]}}